<svg xmlns="http://www.w3.org/2000/svg" version="1.1" viewBox="-5.0 -10.0 110.0 135.0">
 <path d="m66.898 34.191c-1.0898-3.6406-1.5391-8.5898-1.9102-13.352-0.078125-1.0898-0.12891-2.1016-0.17188-3.0195-0.16016-3.7109-0.28906-6.6406-3.4297-7.2617-0.78125-0.14844-1.5312 0.019531-2.1719 0.51172-1.2305 0.92969-1.8711 2.9297-2.2109 4.5117-2.0898-1.8086-4.7383-2.4219-5.6289-2.5703-3.2109-2.6016-5.2305-3.5391-6.2695-2.9414-2.0312 0.76953-2.3789 4.2617-2.4297 6.1016-1.8984 0.73047-3.2617 1.9805-3.9297 2.6992-1.5117-0.44922-5.0312-1.2383-6.8789 0.41016-1.8711 1.6719-0.10156 6.1211 1.1797 8.7305-2.2383-0.94922-4.5898-1.2812-6.2383-0.78125-1.0586 0.32031-1.8203 0.94922-2.1992 1.8398-0.67969 1.5781-0.078125 3.2695 1.5586 4.4219 0.94922 0.67187 6.6914 5.5195 10.328 10.43 3.6992 4.9883 3.9805 10.301 3.7383 15.289-0.050781 1.0312-0.12109 2.0703-0.19922 3.1211 0 0 0 0.011719-0.011718 0.019531-0.03125 0.058594-2.6602 6.1914-12.078 5.7695-2.8086-0.12891-4.6406 0.37109-5.1914 1.3984-0.23047 0.35156-0.92969 1.5703-0.42188 2.9609 0.46094 1.2812 1.7695 2.1992 3.8984 2.7305 1.9805 0.5 4.3203 0.78125 6.5781 0.78125 2.2617 0 4.3711-0.28125 5.9805-0.89063-0.73047 7.0508-1 11.238 0.078126 13.051 0.94922 1.6094 3.0117 2.8516 5.0898 2.1289 1.9805-0.67969 1.8906-2.7617 1.8398-3.7617 0-0.17188-0.019531-0.32812-0.011719-0.44922 0.019532-0.53125 0.42969-1.0781 1.3516-2.2695 0.57031-0.73828 1.2812-1.6484 2.1094-2.8906l0.30859-0.46094c2.5781-3.8516 3.7305-5.4102 5.9688-5.3281 2.5195 0.089844 4.3398 6.8594 4.8203 11.641 0.32031 3.1289 2.7695 4.2305 4.4297 4.2305h0.14844c0.67188-0.03125 1.8984-0.23047 2.6484-1.2891 0.64063-0.89844 0.71094-2.1484 0.23828-3.6602-0.12109-0.60156 0.46094-3.6211 1.0781-6.8086 0.53125-2.7891 1.1992-6.25 1.8203-10.109 2.9688-18.52-1.0703-28.172-3.0195-32.809-0.37109-0.87891-0.66016-1.5781-0.82031-2.1211zm-27.809 38.297c0 0.089844-0.019532 0.17188-0.03125 0.26172-1.8711 1.2695-7.3789 1.7617-12.32 0.51953-1.3906-0.35156-2.2695-0.87109-2.5-1.4609-0.21094-0.57031 0.21094-1.1992 0.21094-1.1992s0.039062-0.050781 0.050781-0.078125c0.14062-0.10156 0.94922-0.51953 3.3789-0.42188 5.8008 0.25 9.6289-1.8203 11.859-3.9883-0.21094 2.1914-0.44141 4.3398-0.66016 6.3711zm29.68-3.6875c-0.62109 3.8281-1.2812 7.2812-1.8086 10.051-0.98047 5.0898-1.3008 6.8906-1.0312 7.7617 0.28125 0.89062 0.28906 1.5781 0.039062 1.9414-0.26172 0.37109-0.85156 0.42969-1.0898 0.44141-0.10156 0-2.2617 0.058594-2.5117-2.4297-0.14063-1.3594-1.5-13.238-6.7383-13.43-3.4297-0.14844-5.0586 2.2617-7.7109 6.2109l-0.30859 0.46094c-0.80078 1.1914-1.4805 2.0703-2.0312 2.7891-1.0312 1.3281-1.7109 2.2188-1.7695 3.3984 0 0.17188 0 0.39062 0.011718 0.62891 0.058594 1.2188-0.058593 1.6211-0.5 1.7812-1.3398 0.46094-2.4219-0.76172-2.7188-1.2617-0.92187-1.5586-0.21875-8.1016 0.46094-14.422 0.44922-4.1797 0.96094-8.9219 1.1797-13.398 0.26172-5.3594-0.058594-11.09-4.1289-16.578-3.7812-5.1016-9.6289-10.07-10.789-10.879-0.60938-0.42188-1.25-1.1094-0.87109-1.9883 0.050781-0.12109 0.21094-0.5 0.94141-0.71094 1.5703-0.46875 4.3086 0.19922 6.5312 1.5586 1.3516 6.4805 7.0703 6.75 8.0117 6.75h0.12891c0.55078-0.03125 0.96875-0.5 0.94141-1.0508-0.03125-0.55078-0.46875-0.98047-1.0508-0.94922-0.23047 0-5.7383 0.17969-6.2812-6.5586-0.011719-0.14062-0.050781-0.28125-0.12109-0.39844-1.8711-3.3789-3.0117-7.1289-2.3594-7.7109 1.0781-0.96094 4.1992-0.28125 5.5391 0.19141 0.41016 0.14844 0.87109 0 1.1406-0.33984 0.019531-0.019531 1.5781-2.0508 4.0781-2.7812 0.42969-0.12891 0.73047-0.53125 0.71875-0.98047-0.039063-2.3516 0.51953-4.75 1.1602-4.9297 0.019531 0 0.039063-0.011719 0.070313-0.019531 0.26953 0.039062 1.4219 0.37109 4.4102 2.8203 0.14062 0.12109 0.32031 0.19141 0.5 0.21875 0.050781 0 4.8086 0.67188 6.3906 4.1289 1.6992 3.7383 0.55078 7.5195 0.070313 8.25-0.30078 0.46094-0.17188 1.0781 0.28906 1.3789 0.46094 0.30078 1.0781 0.17188 1.3789-0.28906 0.96094-1.4805 1.9688-5.9805 0.070313-10.172-0.10156-0.21875-0.21094-0.42188-0.32812-0.62109 0.17969-1.75 0.80078-4.2617 1.7188-4.9609 0.19141-0.14062 0.35938-0.17969 0.57812-0.14062 1.4414 0.28125 1.6406 1.3398 1.8086 5.3789 0.039063 0.92969 0.078126 1.9609 0.17188 3.0781 0.39062 5.0703 0.83984 9.9414 1.9805 13.77 0.19141 0.64844 0.5 1.3906 0.89844 2.3203 2.0195 4.8086 5.7695 13.762 2.8906 31.719z"/>
 <path d="m42.98 25.898c-0.69141 0.48047-1.4102 1.1094-1.4414 1.1289-0.41016 0.37109-0.44922 1-0.089843 1.4102 0.19922 0.21875 0.46875 0.33984 0.75 0.33984 0.23047 0 0.46875-0.078125 0.66016-0.25 0 0 0.66016-0.57812 1.25-0.98047 0.46094-0.30859 0.57031-0.94141 0.26172-1.3906s-0.94141-0.57031-1.3906-0.26172z"/>
 <path d="m50.238 20.57c-0.98047 0.53906-1.5898 1.0586-1.6094 1.0898-0.41016 0.35938-0.46094 0.98828-0.089844 1.4102 0.19922 0.23047 0.48047 0.33984 0.75 0.33984 0.23047 0 0.46875-0.078125 0.64844-0.23828 0 0 0.48047-0.41016 1.2617-0.83984 0.48047-0.26172 0.66016-0.87109 0.39844-1.3594-0.26172-0.48828-0.87109-0.66016-1.3594-0.39844z"/>
 <path d="m22.02 22.93c1 0 2.0195-0.28125 3.0703-0.83984 0.48828-0.26172 0.67188-0.87109 0.41016-1.3516s-0.87109-0.67188-1.3516-0.41016c-1.1094 0.58984-2.1484 0.75-3.0898 0.46094-1-0.30859-1.75-1.0586-2.1914-1.6406 1.4688-0.89844 2.7695-1.25 3.8086-1 1.2188 0.28906 1.7617 1.3086 1.7891 1.3711 0.23828 0.48828 0.83984 0.69922 1.3281 0.46094 0.5-0.23828 0.69922-0.83984 0.46094-1.3398-0.039062-0.078125-0.94141-1.8906-3.0703-2.4219-1.8516-0.46875-3.9609 0.16016-6.2891 1.8398-0.39844 0.28906-0.53125 0.82031-0.30859 1.2617 0.050781 0.10156 1.3281 2.5781 3.8516 3.3711 0.51953 0.16016 1.0391 0.23828 1.5781 0.23828z"/>
 <path d="m76.59 18.922c0.19922-0.51172-0.050782-1.0898-0.55859-1.3008-0.019531 0-1.9609-0.80078-2.6484-2.6406-0.32812-0.87891-0.32812-1.8906 0-3.0117 0.60938 0.58984 1.5195 1.2617 2.8281 1.8984 2 0.96875 1.0898 3.3789 0.98047 3.6406-0.21094 0.51172 0.03125 1.1016 0.53906 1.3086 0.51172 0.21094 1.0898-0.03125 1.3086-0.53906 0.62891-1.5117 1.0391-4.7617-1.9492-6.2109-2.4609-1.1992-3.0508-2.4414-3.0508-2.4414-0.14062-0.37109-0.48828-0.60938-0.87891-0.62891-0.41016-0.011719-0.76172 0.19141-0.94141 0.53906-1.1602 2.2695-1.3906 4.3516-0.69141 6.1719 1.0195 2.6719 3.6797 3.7305 3.7891 3.7695 0.12109 0.050782 0.23828 0.070313 0.35938 0.070313 0.39844 0 0.76953-0.23828 0.92969-0.64062z"/>
 <path d="m82.539 29.66c-0.55078 0-1.0117 0.42969-1.0195 0.98047-0.019531 1.1602-0.35156 2-1.0195 2.5703-0.85156 0.71875-2.0898 0.85937-2.8984 0.85937 0.078126-1.5391 0.48047-2.7188 1.1797-3.4414 0.75-0.78906 1.6211-0.82812 1.6797-0.82812 0.55078 0 0.98828-0.44141 1-0.98828 0-0.55078-0.44141-1-0.98828-1.0117-0.14062 0-1.7383 0.03125-3.0781 1.3984-1.25 1.2812-1.8594 3.2383-1.8008 5.8398 0.011719 0.48047 0.37109 0.89063 0.83984 0.96094 0.050781 0 0.48828 0.070312 1.1289 0.070312 1.1289 0 2.8906-0.21094 4.2188-1.3203 1.1289-0.94141 1.7109-2.3086 1.7383-4.0703 0-0.55078-0.42969-1.0117-0.98047-1.0195z"/>
 <path d="m27.371 54.68c2.5586-1.2891 3.1406-4 3.1602-4.1211 0.058594-0.30859-0.03125-0.64062-0.23828-0.87891-1.4414-1.5586-3.0391-2.3516-4.7617-2.3516h-0.019531c-2.8711 0.011719-4.9414 2.2617-5.0312 2.3594-0.37109 0.41016-0.33984 1.0391 0.070312 1.4102 0.41016 0.37109 1.0391 0.33984 1.4102-0.058594 0.019531-0.019531 1.5898-1.6992 3.5703-1.6992 1 0 1.9688 0.44141 2.8906 1.3008-0.23828 0.62109-0.80859 1.6914-1.9688 2.2695-1.5391 0.76953-3.7109 0.51172-6.4219-0.75-0.5-0.23047-1.1016-0.019531-1.3281 0.48047-0.23047 0.5-0.019531 1.0898 0.48047 1.3281 1.9609 0.91016 3.7188 1.3711 5.2812 1.3711 1.0703 0 2.0508-0.21875 2.9102-0.66016z"/>
<text x="0.0" y="117.5" font-size="5.0" font-weight="bold" font-family="Arbeit Regular, Helvetica, Arial-Unicode, Arial, Sans-serif" fill="#000000">Created by inmyheart</text><text x="0.0" y="122.5" font-size="5.0" font-weight="bold" font-family="Arbeit Regular, Helvetica, Arial-Unicode, Arial, Sans-serif" fill="#000000">from Noun Project</text></svg>